{"asset":{"version":"2.0","generator":"Blockbench 4.9.3 glTF exporter"},"scenes":[{"nodes":[1],"name":"blockbench_export"}],"scene":0,"nodes":[{"name":"cuboid","mesh":0},{"children":[0]}],"bufferViews":[{"buffer":0,"byteOffset":0,"byteLength":2544,"target":34962,"byteStride":12},{"buffer":0,"byteOffset":2544,"byteLength":2544,"target":34962,"byteStride":12},{"buffer":0,"byteOffset":5088,"byteLength":1696,"target":34962,"byteStride":8},{"buffer":0,"byteOffset":6784,"byteLength":612,"target":34963}],"buffers":[{"byteLength":7396,"uri":"data:application/octet-stream;base64,"}],"accessors":[{"bufferView":0,"componentType":5126,"count":212,"max":[0.3125,4.9375,0.5],"min":[-0.3125,-2.0625,-0.5],"type":"VEC3"},{"bufferView":1,"componentType":5126,"count":212,"max":[1,1,1],"min":[-1,-1,-1],"type":"VEC3"},{"bufferView":2,"componentType":5126,"count":212,"max":[0.5142546892166138,0.5961355566978455],"min":[0,0],"type":"VEC2"},{"bufferView":3,"componentType":5123,"count":306,"max":[211],"min":[0],"type":"SCALAR"}],"materials":[{"pbrMetallicRoughness":{"metallicFactor":0,"roughnessFactor":1,"baseColorTexture":{"index":0}},"alphaMode":"MASK","alphaCutoff":0.05,"doubleSided":true}],"textures":[{"sampler":0,"source":0}],"samplers":[{"magFilter":9728,"minFilter":9728,"wrapS":33071,"wrapT":33071}],"images":[{"mimeType":"image/png","uri":"data:image/png;base64,"}],"meshes":[{"primitives":[{"mode":4,"attributes":{"POSITION":0,"NORMAL":1,"TEXCOORD_0":2},"indices":3,"material":0}]}]}